<svg width="40" height="40" viewBox="0 0 40 40" fill="none" xmlns="http://www.w3.org/2000/svg">
<path fill-rule="evenodd" clip-rule="evenodd" d="M6.42359 33.5764C2.8229 29.9757 0.800049 25.0921 0.800049 20C0.800049 14.9078 2.82289 10.0243 6.4236 6.42353C10.0243 2.82283 14.9079 0.799988 20 0.799988C25.0922 0.799988 29.9758 2.82283 33.5765 6.42354C37.1772 10.0243 39.2001 14.9078 39.2001 20C39.2001 25.0921 37.1772 29.9757 33.5765 33.5764C29.9758 37.1771 25.0922 39.2 20 39.2C14.9079 39.2 10.0243 37.1771 6.42359 33.5764ZM8.12066 8.12059C4.97004 11.2712 3.20005 15.5444 3.20005 20C3.20005 24.4556 4.97004 28.7287 8.12065 31.8794C11.2713 35.03 15.5444 36.8 20 36.8C24.4557 36.8 28.7288 35.03 31.8794 31.8794C35.0301 28.7287 36.8 24.4556 36.8 20C36.8 15.5444 35.0301 11.2712 31.8794 8.12059C28.7288 4.96998 24.4557 3.19999 20 3.19999C15.5444 3.19999 11.2713 4.96998 8.12066 8.12059ZM8.71103 22.6689C9.05208 22.4922 9.43052 22.4 9.81457 22.4H30.1858C30.5699 22.4 30.9484 22.4922 31.2889 22.6687C31.63 22.8452 31.9236 23.101 32.1453 23.4145C32.3669 23.7279 32.51 24.0899 32.5629 24.4705C32.6156 24.8508 32.5763 25.2381 32.4486 25.5991C31.5402 28.175 29.855 30.4056 27.6253 31.9836C25.3957 33.5614 22.7316 34.4087 20.0002 34.4087C17.2688 34.4087 14.6046 33.5614 12.375 31.9836C10.1454 30.4056 8.46018 28.175 7.55202 25.6C7.42406 25.2381 7.38477 24.8508 7.43751 24.47C7.49033 24.0899 7.63348 23.7279 7.85507 23.4145C8.07674 23.101 8.37038 22.8452 8.71103 22.6689ZM9.81457 24.8L9.92034 25.0865C10.6846 27.0732 12.0201 28.7922 13.7614 30.0245C15.5856 31.3155 17.7654 32.0087 20.0002 32.0087C22.235 32.0087 24.4147 31.3155 26.2389 30.0245C28.0632 28.7335 29.442 26.9084 30.1856 24.8H9.81457ZM31.5205 17.2002C31.1897 16.2641 30.5769 15.4537 29.7664 14.8803C28.9557 14.307 27.9873 13.9991 26.9946 13.9991C26.0019 13.9991 25.0335 14.307 24.2229 14.8802C23.4123 15.4536 22.7995 16.2641 22.4687 17.2002C22.248 17.8251 22.5755 18.5106 23.2004 18.7314C23.7906 18.9399 24.4349 18.6593 24.6906 18.1011L24.7316 17.9997C24.897 17.5316 25.2034 17.1264 25.6087 16.8397C26.014 16.5531 26.4983 16.3991 26.9946 16.3991C27.4909 16.3991 27.9752 16.5531 28.3806 16.8398C28.7407 17.0945 29.0229 17.4431 29.1973 17.8461L29.2576 17.9997C29.4783 18.6246 30.1639 18.9522 30.7888 18.7314C31.4137 18.5106 31.7412 17.8251 31.5205 17.2002ZM15.7775 14.8803C16.588 15.4537 17.2008 16.2641 17.5316 17.2002C17.7523 17.8251 17.4248 18.5106 16.7999 18.7314C16.175 18.9522 15.4894 18.6246 15.2687 17.9997L15.2084 17.8461C15.034 17.4431 14.7518 17.0945 14.3917 16.8398C13.9863 16.5531 13.502 16.3991 13.0057 16.3991C12.5094 16.3991 12.0251 16.5531 11.6198 16.8397C11.2145 17.1264 10.9082 17.5316 10.7428 17.9997L10.7017 18.1011C10.446 18.6593 9.80171 18.9399 9.21154 18.7314C8.58665 18.5106 8.25906 17.8251 8.47984 17.2002C8.81059 16.2641 9.42338 15.4536 10.234 14.8802C11.0446 14.307 12.013 13.9991 13.0057 13.9991C13.9984 13.9991 14.9668 14.307 15.7775 14.8803Z" fill="black"/>
</svg>
