<svg width="40" height="40" viewBox="0 0 40 40" fill="none" xmlns="http://www.w3.org/2000/svg">
<g clip-path="url(#clip0)">
<path fill-rule="evenodd" clip-rule="evenodd" d="M20 39.2C9.39618 39.2 0.800049 30.6039 0.800049 20C0.800049 9.39612 9.39618 0.799988 20 0.799988C30.6039 0.799988 39.2001 9.39612 39.2001 20C39.2001 30.6039 30.6039 39.2 20 39.2ZM20 3.19999C10.7217 3.19999 3.20005 10.7216 3.20005 20C3.20005 29.2784 10.7217 36.8 20 36.8C29.2784 36.8 36.8 29.2784 36.8 20C36.8 10.7216 29.2784 3.19999 20 3.19999ZM20 32C25.3019 32 29.6 27.7019 29.6 22.4C29.6 21.7372 30.1373 21.2 30.8 21.2C31.4627 21.2 32 21.7372 32 22.4C32 29.0274 26.6274 34.4 20 34.4C13.3726 34.4 8 29.0274 8 22.4C8 21.7372 8.53726 21.2 9.2 21.2C9.86275 21.2 10.4 21.7372 10.4 22.4C10.4 27.7019 14.6981 32 20 32ZM29.2829 13.5345L29.2574 13.6003C28.9186 14.5595 28.0118 15.2008 26.9945 15.2008C26.01 15.2008 25.1291 14.6002 24.7661 13.6921L24.7316 13.6003C24.5108 12.9754 23.8253 12.6478 23.2004 12.8685C22.5755 13.0893 22.2479 13.7748 22.4686 14.3997C23.1464 16.3181 24.9599 17.6008 26.9945 17.6008C29.0291 17.6008 30.8426 16.3181 31.5204 14.3997C31.7411 13.7748 31.4135 13.0893 30.7886 12.8685C30.1861 12.6556 29.5271 12.9527 29.2829 13.5345ZM15.2686 13.6003L15.294 13.5345C15.5383 12.9527 16.1972 12.6556 16.7998 12.8685C17.4247 13.0893 17.7523 13.7748 17.5315 14.3997C16.8538 16.3181 15.0402 17.6008 13.0057 17.6008C10.9711 17.6008 9.15753 16.3181 8.47979 14.3997C8.25903 13.7748 8.58664 13.0893 9.21153 12.8685C9.83642 12.6478 10.522 12.9754 10.7427 13.6003L10.7773 13.6921C11.1402 14.6002 12.0212 15.2008 13.0057 15.2008C14.023 15.2008 14.9297 14.5595 15.2686 13.6003Z" fill="black"/>
</g>
<defs>
<clipPath id="clip0">
<rect width="38.4" height="38.4" fill="white" transform="translate(0.800049 0.799988)"/>
</clipPath>
</defs>
</svg>
