<svg width="723" height="733" viewBox="0 0 723 733" fill="none" xmlns="http://www.w3.org/2000/svg">
<g opacity="0.05" clip-path="url(#clip0)">
<path d="M635.903 80.912C635.903 303.912 103.137 308.558 103.091 593.626C38.9897 522.451 0 428.141 0 324.818C0 293.644 3.52764 263.261 10.258 234.131C21.5372 263.586 53.4252 317.849 134.607 317.849C334.197 317.849 334.197 -49.1711 510.579 -49.1711C617.337 -49.1711 635.903 43.7454 635.903 80.912Z" fill="white"/>
<path d="M167.09 575.088C167.09 352.088 699.856 347.442 699.903 62.3745C764.004 133.549 802.993 227.859 802.993 331.182C802.993 362.356 799.466 392.739 792.735 421.869C781.456 392.414 749.568 338.151 668.386 338.151C468.796 338.151 468.796 705.171 292.414 705.171C185.656 705.171 167.09 612.255 167.09 575.088Z" fill="white"/>
<path d="M405.78 733.001C483.295 727.658 516.483 403.193 668.403 403.193C786.765 403.193 758.915 521.662 724.242 570.211C724.149 570.35 724.103 570.443 724.103 570.443C651.74 668.052 536.21 731.653 405.78 733.001Z" fill="white"/>
<path d="M397.226 -77C319.711 -71.6573 286.524 252.807 134.603 252.807C16.2414 252.807 44.0912 134.339 78.7642 85.7898C78.857 85.6504 78.9035 85.5575 78.9035 85.5575C151.266 -12.0513 266.797 -75.6527 397.226 -77Z" fill="white"/>
</g>
<defs>
<clipPath id="clip0">
<rect width="803.002" height="810" fill="white" transform="translate(0 -77)"/>
</clipPath>
</defs>
</svg>
